
We are debugging

make: 'Phase1a' is up to date.
make: 'Phase1b' is up to date.
We will process these 5 movie files.
/media/seth/CTAP/ShortTests/Movies/movie001.mp4
/media/seth/CTAP/ShortTests/Movies/movie002.mp4
/media/seth/CTAP/ShortTests/Movies/movie003.mp4
/media/seth/CTAP/ShortTests/Movies/movie004.mp4
/media/seth/CTAP/ShortTests/Movies/movie005.mp4


Begin processing 1 of 5 movie file(s)
Checking if we already have the copy
They are the same
Making Mick West redundant, processing ONI FOIA files...
movie001.mp4
Repaying TTSA investors, straightening Uri Gellar's spoons...
Calling ffmpeg to extract bitmap frames..to watch this, run in another window:
tail -f /data/GIT/C-TAP/RESULTS/ffmpeg.outputs


ffmpeg done.

12 frames captured

Beginning Phase1a

Phase1 Completed 11 difference lines in /data/GIT/C-TAP/RESULTS/movie001.int

Beginning Phase1b

./Phase1b /data/GIT/C-TAP/RESULTS/movie001.int 11 0.5 > /data/GIT/C-TAP/RESULTS/movie001.out

Grey(8-bit) pixel diff mu and sigma of 36.9 +/- 1.70 (units of 0-255)
So, setting a minimum threshold of 1.0 SIGMA = 38 (so-called SUB threshold of 20)
And setting a maximum threshold of 254
The number of pixels above 20 units is 21.09 +/- 8.42
Minimum number of pixels allowed to be above the sub-threshold of 20 is 23
Maximum number of pixels allowed to be above the sub-threshold of 20 is 67
First try of Phase1b reported 4 frames have objects.
Logging range, deploying Little Green Men..
processing frame number 10
Breaking Lue's NDA...
Input #0, image2, from 'pic*.bmp':
  Duration: 00:00:00.07, start: 0.000000, bitrate: N/A
  Stream #0:0: Video: bmp, bgra, 1920x1080, 60 fps, 60 tbr, 60 tbn, 60 tbc
Stream mapping:
  Stream #0:0 -> #0:0 (bmp (native) -> h264 (libx264))
Press [q] to stop, [?] for help
[libx264 @ 0x5f910b369e40] using cpu capabilities: MMX2 SSE2Fast SSSE3 SSE4.2 AVX FMA3 BMI2 AVX2
[libx264 @ 0x5f910b369e40] profile High, level 4.2, 4:2:0, 8-bit
[libx264 @ 0x5f910b369e40] 264 - core 163 r3060 5db6aa6 - H.264/MPEG-4 AVC codec - Copyleft 2003-2021 - http://www.videolan.org/x264.html - options: cabac=1 ref=3 deblock=1:0:0 analyse=0x3:0x113 me=hex subme=7 psy=1 psy_rd=1.00:0.00 mixed_ref=1 me_range=16 chroma_me=1 trellis=1 8x8dct=1 cqm=0 deadzone=21,11 fast_pskip=1 chroma_qp_offset=-2 threads=12 lookahead_threads=2 sliced_threads=0 nr=0 decimate=1 interlaced=0 bluray_compat=0 constrained_intra=0 bframes=3 b_pyramid=2 b_adapt=1 b_bias=0 direct=1 weightb=1 open_gop=0 weightp=2 keyint=250 keyint_min=25 scenecut=40 intra_refresh=0 rc_lookahead=40 rc=crf mbtree=1 crf=25.0 qcomp=0.60 qpmin=0 qpmax=69 qpstep=4 ip_ratio=1.40 aq=1:1.00
Output #0, mov, to '/data/GIT/C-TAP/RESULTS/movie001.MOV':
  Metadata:
    encoder         : Lavf58.76.100
  Stream #0:0: Video: h264 (avc1 / 0x31637661), yuv420p(tv, progressive), 1920x1080, q=2-31, 60 fps, 15360 tbn
    Metadata:
      encoder         : Lavc58.134.100 libx264
    Side data:
      cpb: bitrate max/min/avg: 0/0/0 buffer size: 0 vbv_delay: N/A
frame=    1 fps=0.0 q=0.0 size=       0kB time=00:00:00.00 bitrate=N/A speed=   0x    frame=    4 fps=0.0 q=-1.0 Lsize=      60kB time=00:00:00.01 bitrate=29297.6kbits/s speed=0.0721x    
video:59kB audio:0kB subtitle:0kB other streams:0kB global headers:0kB muxing overhead: 1.401645%
[libx264 @ 0x5f910b369e40] frame I:1     Avg QP:28.93  size: 35183
[libx264 @ 0x5f910b369e40] frame P:1     Avg QP:30.84  size: 20495
[libx264 @ 0x5f910b369e40] frame B:2     Avg QP:31.02  size:  2030
[libx264 @ 0x5f910b369e40] consecutive B-frames: 25.0%  0.0% 75.0%  0.0%
[libx264 @ 0x5f910b369e40] mb I  I16..4: 10.1% 82.1%  7.8%
[libx264 @ 0x5f910b369e40] mb P  I16..4:  5.6% 51.6%  2.3%  P16..4: 15.6%  0.6%  1.2%  0.0%  0.0%    skip:23.1%
[libx264 @ 0x5f910b369e40] mb B  I16..4:  0.0%  0.1%  0.1%  B16..8: 10.4%  0.1%  0.0%  direct: 0.1%  skip:89.1%  L0:28.6% L1:70.4% BI: 1.0%
[libx264 @ 0x5f910b369e40] 8x8 transform intra:83.6% inter:72.0%
[libx264 @ 0x5f910b369e40] coded y,uvDC,uvAC intra: 50.6% 7.7% 0.3% inter: 6.3% 0.4% 0.0%
[libx264 @ 0x5f910b369e40] i16 v,h,dc,p: 29% 19% 33% 19%
[libx264 @ 0x5f910b369e40] i8 v,h,dc,ddl,ddr,vr,hd,vl,hu: 21% 13% 35%  7%  6%  5%  5%  4%  4%
[libx264 @ 0x5f910b369e40] i4 v,h,dc,ddl,ddr,vr,hd,vl,hu: 31% 16% 26%  8%  6%  4%  4%  2%  2%
[libx264 @ 0x5f910b369e40] i8c dc,h,v,p: 90%  6%  4%  0%
[libx264 @ 0x5f910b369e40] Weighted P-Frames: Y:0.0% UV:0.0%
[libx264 @ 0x5f910b369e40] ref B L0: 93.8%  6.2%
[libx264 @ 0x5f910b369e40] kb/s:7168.68
Cleaning detritus...
about to delete input movie
/data/GIT/C-TAP/TMPMOVIEDIR/movie001.mp4
Cosmic consciousness has been achieved!!
from yet another movie 1 of 5.
Begin processing 2 of 5 movie file(s)
Checking if we already have the copy
They are the same
Making Mick West redundant, processing ONI FOIA files...
movie002.mp4
Repaying TTSA investors, straightening Uri Gellar's spoons...
Calling ffmpeg to extract bitmap frames..to watch this, run in another window:
tail -f /data/GIT/C-TAP/RESULTS/ffmpeg.outputs


ffmpeg done.

12 frames captured

Beginning Phase1a

Phase1 Completed 11 difference lines in /data/GIT/C-TAP/RESULTS/movie002.int

Beginning Phase1b

./Phase1b /data/GIT/C-TAP/RESULTS/movie002.int 11 0.5 > /data/GIT/C-TAP/RESULTS/movie002.out

Grey(8-bit) pixel diff mu and sigma of 36.9 +/- 1.70 (units of 0-255)
So, setting a minimum threshold of 1.0 SIGMA = 38 (so-called SUB threshold of 20)
And setting a maximum threshold of 254
The number of pixels above 20 units is 21.09 +/- 8.42
Minimum number of pixels allowed to be above the sub-threshold of 20 is 23
Maximum number of pixels allowed to be above the sub-threshold of 20 is 67
First try of Phase1b reported 4 frames have objects.
Logging range, deploying Little Green Men..
processing frame number 10
Breaking Lue's NDA...
Input #0, image2, from 'pic*.bmp':
  Duration: 00:00:00.07, start: 0.000000, bitrate: N/A
  Stream #0:0: Video: bmp, bgra, 1920x1080, 60 fps, 60 tbr, 60 tbn, 60 tbc
Stream mapping:
  Stream #0:0 -> #0:0 (bmp (native) -> h264 (libx264))
Press [q] to stop, [?] for help
[libx264 @ 0x6008538e3e40] using cpu capabilities: MMX2 SSE2Fast SSSE3 SSE4.2 AVX FMA3 BMI2 AVX2
[libx264 @ 0x6008538e3e40] profile High, level 4.2, 4:2:0, 8-bit
[libx264 @ 0x6008538e3e40] 264 - core 163 r3060 5db6aa6 - H.264/MPEG-4 AVC codec - Copyleft 2003-2021 - http://www.videolan.org/x264.html - options: cabac=1 ref=3 deblock=1:0:0 analyse=0x3:0x113 me=hex subme=7 psy=1 psy_rd=1.00:0.00 mixed_ref=1 me_range=16 chroma_me=1 trellis=1 8x8dct=1 cqm=0 deadzone=21,11 fast_pskip=1 chroma_qp_offset=-2 threads=12 lookahead_threads=2 sliced_threads=0 nr=0 decimate=1 interlaced=0 bluray_compat=0 constrained_intra=0 bframes=3 b_pyramid=2 b_adapt=1 b_bias=0 direct=1 weightb=1 open_gop=0 weightp=2 keyint=250 keyint_min=25 scenecut=40 intra_refresh=0 rc_lookahead=40 rc=crf mbtree=1 crf=25.0 qcomp=0.60 qpmin=0 qpmax=69 qpstep=4 ip_ratio=1.40 aq=1:1.00
Output #0, mov, to '/data/GIT/C-TAP/RESULTS/movie002.MOV':
  Metadata:
    encoder         : Lavf58.76.100
  Stream #0:0: Video: h264 (avc1 / 0x31637661), yuv420p(tv, progressive), 1920x1080, q=2-31, 60 fps, 15360 tbn
    Metadata:
      encoder         : Lavc58.134.100 libx264
    Side data:
      cpb: bitrate max/min/avg: 0/0/0 buffer size: 0 vbv_delay: N/A
frame=    1 fps=0.0 q=0.0 size=       0kB time=00:00:00.00 bitrate=N/A speed=N/A    frame=    4 fps=0.0 q=-1.0 Lsize=      60kB time=00:00:00.01 bitrate=29297.6kbits/s speed=0.067x    
video:59kB audio:0kB subtitle:0kB other streams:0kB global headers:0kB muxing overhead: 1.401645%
[libx264 @ 0x6008538e3e40] frame I:1     Avg QP:28.93  size: 35183
[libx264 @ 0x6008538e3e40] frame P:1     Avg QP:30.84  size: 20495
[libx264 @ 0x6008538e3e40] frame B:2     Avg QP:31.02  size:  2030
[libx264 @ 0x6008538e3e40] consecutive B-frames: 25.0%  0.0% 75.0%  0.0%
[libx264 @ 0x6008538e3e40] mb I  I16..4: 10.1% 82.1%  7.8%
[libx264 @ 0x6008538e3e40] mb P  I16..4:  5.6% 51.6%  2.3%  P16..4: 15.6%  0.6%  1.2%  0.0%  0.0%    skip:23.1%
[libx264 @ 0x6008538e3e40] mb B  I16..4:  0.0%  0.1%  0.1%  B16..8: 10.4%  0.1%  0.0%  direct: 0.1%  skip:89.1%  L0:28.6% L1:70.4% BI: 1.0%
[libx264 @ 0x6008538e3e40] 8x8 transform intra:83.6% inter:72.0%
[libx264 @ 0x6008538e3e40] coded y,uvDC,uvAC intra: 50.6% 7.7% 0.3% inter: 6.3% 0.4% 0.0%
[libx264 @ 0x6008538e3e40] i16 v,h,dc,p: 29% 19% 33% 19%
[libx264 @ 0x6008538e3e40] i8 v,h,dc,ddl,ddr,vr,hd,vl,hu: 21% 13% 35%  7%  6%  5%  5%  4%  4%
[libx264 @ 0x6008538e3e40] i4 v,h,dc,ddl,ddr,vr,hd,vl,hu: 31% 16% 26%  8%  6%  4%  4%  2%  2%
[libx264 @ 0x6008538e3e40] i8c dc,h,v,p: 90%  6%  4%  0%
[libx264 @ 0x6008538e3e40] Weighted P-Frames: Y:0.0% UV:0.0%
[libx264 @ 0x6008538e3e40] ref B L0: 93.8%  6.2%
[libx264 @ 0x6008538e3e40] kb/s:7168.68
Cleaning detritus...
about to delete input movie
/data/GIT/C-TAP/TMPMOVIEDIR/movie002.mp4
Cosmic consciousness has been achieved!!
from yet another movie 2 of 5.
Begin processing 3 of 5 movie file(s)
Checking if we already have the copy
They are the same
Making Mick West redundant, processing ONI FOIA files...
movie003.mp4
Repaying TTSA investors, straightening Uri Gellar's spoons...
Calling ffmpeg to extract bitmap frames..to watch this, run in another window:
tail -f /data/GIT/C-TAP/RESULTS/ffmpeg.outputs


ffmpeg done.

12 frames captured

Beginning Phase1a

Phase1 Completed 11 difference lines in /data/GIT/C-TAP/RESULTS/movie003.int

Beginning Phase1b

./Phase1b /data/GIT/C-TAP/RESULTS/movie003.int 11 0.5 > /data/GIT/C-TAP/RESULTS/movie003.out

Grey(8-bit) pixel diff mu and sigma of 36.9 +/- 1.70 (units of 0-255)
So, setting a minimum threshold of 1.0 SIGMA = 38 (so-called SUB threshold of 20)
And setting a maximum threshold of 254
The number of pixels above 20 units is 21.09 +/- 8.42
Minimum number of pixels allowed to be above the sub-threshold of 20 is 23
Maximum number of pixels allowed to be above the sub-threshold of 20 is 67
First try of Phase1b reported 5 frames have objects.
Logging range, deploying Little Green Men..
processing frame number 10
Breaking Lue's NDA...
Input #0, image2, from 'pic*.bmp':
  Duration: 00:00:00.08, start: 0.000000, bitrate: N/A
  Stream #0:0: Video: bmp, bgra, 1920x1080, 60 fps, 60 tbr, 60 tbn, 60 tbc
Stream mapping:
  Stream #0:0 -> #0:0 (bmp (native) -> h264 (libx264))
Press [q] to stop, [?] for help
[libx264 @ 0x5abdc1776080] using cpu capabilities: MMX2 SSE2Fast SSSE3 SSE4.2 AVX FMA3 BMI2 AVX2
[libx264 @ 0x5abdc1776080] profile High, level 4.2, 4:2:0, 8-bit
[libx264 @ 0x5abdc1776080] 264 - core 163 r3060 5db6aa6 - H.264/MPEG-4 AVC codec - Copyleft 2003-2021 - http://www.videolan.org/x264.html - options: cabac=1 ref=3 deblock=1:0:0 analyse=0x3:0x113 me=hex subme=7 psy=1 psy_rd=1.00:0.00 mixed_ref=1 me_range=16 chroma_me=1 trellis=1 8x8dct=1 cqm=0 deadzone=21,11 fast_pskip=1 chroma_qp_offset=-2 threads=12 lookahead_threads=2 sliced_threads=0 nr=0 decimate=1 interlaced=0 bluray_compat=0 constrained_intra=0 bframes=3 b_pyramid=2 b_adapt=1 b_bias=0 direct=1 weightb=1 open_gop=0 weightp=2 keyint=250 keyint_min=25 scenecut=40 intra_refresh=0 rc_lookahead=40 rc=crf mbtree=1 crf=25.0 qcomp=0.60 qpmin=0 qpmax=69 qpstep=4 ip_ratio=1.40 aq=1:1.00
Output #0, mov, to '/data/GIT/C-TAP/RESULTS/movie003.MOV':
  Metadata:
    encoder         : Lavf58.76.100
  Stream #0:0: Video: h264 (avc1 / 0x31637661), yuv420p(tv, progressive), 1920x1080, q=2-31, 60 fps, 15360 tbn
    Metadata:
      encoder         : Lavc58.134.100 libx264
    Side data:
      cpb: bitrate max/min/avg: 0/0/0 buffer size: 0 vbv_delay: N/A
frame=    1 fps=0.0 q=0.0 size=       0kB time=00:00:00.00 bitrate=N/A speed=   0x    frame=    5 fps=0.0 q=-1.0 Lsize=      62kB time=00:00:00.03 bitrate=15106.3kbits/s speed=0.123x    
video:61kB audio:0kB subtitle:0kB other streams:0kB global headers:0kB muxing overhead: 1.393935%
[libx264 @ 0x5abdc1776080] frame I:1     Avg QP:28.86  size: 35754
[libx264 @ 0x5abdc1776080] frame P:1     Avg QP:30.89  size: 20172
[libx264 @ 0x5abdc1776080] frame B:3     Avg QP:30.88  size:  1861
[libx264 @ 0x5abdc1776080] consecutive B-frames: 20.0%  0.0%  0.0% 80.0%
[libx264 @ 0x5abdc1776080] mb I  I16..4: 10.8% 81.0%  8.2%
[libx264 @ 0x5abdc1776080] mb P  I16..4:  5.8% 47.2%  2.3%  P16..4: 17.9%  0.6%  1.6%  0.0%  0.0%    skip:24.7%
[libx264 @ 0x5abdc1776080] mb B  I16..4:  0.0%  0.1%  0.1%  B16..8:  9.9%  0.0%  0.0%  direct: 0.1%  skip:89.7%  L0:56.6% L1:42.9% BI: 0.5%
[libx264 @ 0x5abdc1776080] 8x8 transform intra:82.3% inter:70.6%
[libx264 @ 0x5abdc1776080] coded y,uvDC,uvAC intra: 50.8% 7.7% 0.4% inter: 5.4% 0.4% 0.0%
[libx264 @ 0x5abdc1776080] i16 v,h,dc,p: 33% 18% 31% 18%
[libx264 @ 0x5abdc1776080] i8 v,h,dc,ddl,ddr,vr,hd,vl,hu: 19% 14% 35%  7%  6%  5%  6%  4%  4%
[libx264 @ 0x5abdc1776080] i4 v,h,dc,ddl,ddr,vr,hd,vl,hu: 29% 17% 27%  8%  6%  4%  4%  3%  2%
[libx264 @ 0x5abdc1776080] i8c dc,h,v,p: 90%  6%  4%  0%
[libx264 @ 0x5abdc1776080] Weighted P-Frames: Y:0.0% UV:0.0%
[libx264 @ 0x5abdc1776080] ref B L0: 99.7%  0.3%
[libx264 @ 0x5abdc1776080] ref B L1: 94.9%  5.1%
[libx264 @ 0x5abdc1776080] kb/s:5904.77
Cleaning detritus...
about to delete input movie
/data/GIT/C-TAP/TMPMOVIEDIR/movie003.mp4
Cosmic consciousness has been achieved!!
from yet another movie 3 of 5.
Begin processing 4 of 5 movie file(s)
Checking if we already have the copy
They are the same
Making Mick West redundant, processing ONI FOIA files...
movie004.mp4
Repaying TTSA investors, straightening Uri Gellar's spoons...
Calling ffmpeg to extract bitmap frames..to watch this, run in another window:
tail -f /data/GIT/C-TAP/RESULTS/ffmpeg.outputs


ffmpeg done.

12 frames captured

Beginning Phase1a

Phase1 Completed 11 difference lines in /data/GIT/C-TAP/RESULTS/movie004.int

Beginning Phase1b

./Phase1b /data/GIT/C-TAP/RESULTS/movie004.int 11 0.5 > /data/GIT/C-TAP/RESULTS/movie004.out

Grey(8-bit) pixel diff mu and sigma of 36.9 +/- 1.70 (units of 0-255)
So, setting a minimum threshold of 1.0 SIGMA = 38 (so-called SUB threshold of 20)
And setting a maximum threshold of 254
The number of pixels above 20 units is 21.09 +/- 8.42
Minimum number of pixels allowed to be above the sub-threshold of 20 is 23
Maximum number of pixels allowed to be above the sub-threshold of 20 is 67
First try of Phase1b reported 4 frames have objects.
Logging range, deploying Little Green Men..
processing frame number 10
Breaking Lue's NDA...
Input #0, image2, from 'pic*.bmp':
  Duration: 00:00:00.07, start: 0.000000, bitrate: N/A
  Stream #0:0: Video: bmp, bgra, 1920x1080, 60 fps, 60 tbr, 60 tbn, 60 tbc
Stream mapping:
  Stream #0:0 -> #0:0 (bmp (native) -> h264 (libx264))
Press [q] to stop, [?] for help
[libx264 @ 0x60bde7063e40] using cpu capabilities: MMX2 SSE2Fast SSSE3 SSE4.2 AVX FMA3 BMI2 AVX2
[libx264 @ 0x60bde7063e40] profile High, level 4.2, 4:2:0, 8-bit
[libx264 @ 0x60bde7063e40] 264 - core 163 r3060 5db6aa6 - H.264/MPEG-4 AVC codec - Copyleft 2003-2021 - http://www.videolan.org/x264.html - options: cabac=1 ref=3 deblock=1:0:0 analyse=0x3:0x113 me=hex subme=7 psy=1 psy_rd=1.00:0.00 mixed_ref=1 me_range=16 chroma_me=1 trellis=1 8x8dct=1 cqm=0 deadzone=21,11 fast_pskip=1 chroma_qp_offset=-2 threads=12 lookahead_threads=2 sliced_threads=0 nr=0 decimate=1 interlaced=0 bluray_compat=0 constrained_intra=0 bframes=3 b_pyramid=2 b_adapt=1 b_bias=0 direct=1 weightb=1 open_gop=0 weightp=2 keyint=250 keyint_min=25 scenecut=40 intra_refresh=0 rc_lookahead=40 rc=crf mbtree=1 crf=25.0 qcomp=0.60 qpmin=0 qpmax=69 qpstep=4 ip_ratio=1.40 aq=1:1.00
Output #0, mov, to '/data/GIT/C-TAP/RESULTS/movie004.MOV':
  Metadata:
    encoder         : Lavf58.76.100
  Stream #0:0: Video: h264 (avc1 / 0x31637661), yuv420p(tv, progressive), 1920x1080, q=2-31, 60 fps, 15360 tbn
    Metadata:
      encoder         : Lavc58.134.100 libx264
    Side data:
      cpb: bitrate max/min/avg: 0/0/0 buffer size: 0 vbv_delay: N/A
frame=    1 fps=0.0 q=0.0 size=       0kB time=00:00:00.00 bitrate=N/A speed=N/A    frame=    4 fps=0.0 q=-1.0 Lsize=      60kB time=00:00:00.01 bitrate=29297.6kbits/s speed=0.0732x    
video:59kB audio:0kB subtitle:0kB other streams:0kB global headers:0kB muxing overhead: 1.401645%
[libx264 @ 0x60bde7063e40] frame I:1     Avg QP:28.93  size: 35183
[libx264 @ 0x60bde7063e40] frame P:1     Avg QP:30.84  size: 20495
[libx264 @ 0x60bde7063e40] frame B:2     Avg QP:31.02  size:  2030
[libx264 @ 0x60bde7063e40] consecutive B-frames: 25.0%  0.0% 75.0%  0.0%
[libx264 @ 0x60bde7063e40] mb I  I16..4: 10.1% 82.1%  7.8%
[libx264 @ 0x60bde7063e40] mb P  I16..4:  5.6% 51.6%  2.3%  P16..4: 15.6%  0.6%  1.2%  0.0%  0.0%    skip:23.1%
[libx264 @ 0x60bde7063e40] mb B  I16..4:  0.0%  0.1%  0.1%  B16..8: 10.4%  0.1%  0.0%  direct: 0.1%  skip:89.1%  L0:28.6% L1:70.4% BI: 1.0%
[libx264 @ 0x60bde7063e40] 8x8 transform intra:83.6% inter:72.0%
[libx264 @ 0x60bde7063e40] coded y,uvDC,uvAC intra: 50.6% 7.7% 0.3% inter: 6.3% 0.4% 0.0%
[libx264 @ 0x60bde7063e40] i16 v,h,dc,p: 29% 19% 33% 19%
[libx264 @ 0x60bde7063e40] i8 v,h,dc,ddl,ddr,vr,hd,vl,hu: 21% 13% 35%  7%  6%  5%  5%  4%  4%
[libx264 @ 0x60bde7063e40] i4 v,h,dc,ddl,ddr,vr,hd,vl,hu: 31% 16% 26%  8%  6%  4%  4%  2%  2%
[libx264 @ 0x60bde7063e40] i8c dc,h,v,p: 90%  6%  4%  0%
[libx264 @ 0x60bde7063e40] Weighted P-Frames: Y:0.0% UV:0.0%
[libx264 @ 0x60bde7063e40] ref B L0: 93.8%  6.2%
[libx264 @ 0x60bde7063e40] kb/s:7168.68
Cleaning detritus...
about to delete input movie
/data/GIT/C-TAP/TMPMOVIEDIR/movie004.mp4
Cosmic consciousness has been achieved!!
from yet another movie 4 of 5.
Begin processing 5 of 5 movie file(s)
Checking if we already have the copy
They are the same
Making Mick West redundant, processing ONI FOIA files...
movie005.mp4
Repaying TTSA investors, straightening Uri Gellar's spoons...
Calling ffmpeg to extract bitmap frames..to watch this, run in another window:
tail -f /data/GIT/C-TAP/RESULTS/ffmpeg.outputs


ffmpeg done.

12 frames captured

Beginning Phase1a

Phase1 Completed 11 difference lines in /data/GIT/C-TAP/RESULTS/movie005.int

Beginning Phase1b

./Phase1b /data/GIT/C-TAP/RESULTS/movie005.int 11 0.5 > /data/GIT/C-TAP/RESULTS/movie005.out

Grey(8-bit) pixel diff mu and sigma of 36.9 +/- 1.70 (units of 0-255)
So, setting a minimum threshold of 1.0 SIGMA = 38 (so-called SUB threshold of 20)
And setting a maximum threshold of 254
The number of pixels above 20 units is 21.09 +/- 8.42
Minimum number of pixels allowed to be above the sub-threshold of 20 is 23
Maximum number of pixels allowed to be above the sub-threshold of 20 is 67
First try of Phase1b reported 4 frames have objects.
Logging range, deploying Little Green Men..
processing frame number 10
Breaking Lue's NDA...
Input #0, image2, from 'pic*.bmp':
  Duration: 00:00:00.07, start: 0.000000, bitrate: N/A
  Stream #0:0: Video: bmp, bgra, 1920x1080, 60 fps, 60 tbr, 60 tbn, 60 tbc
Stream mapping:
  Stream #0:0 -> #0:0 (bmp (native) -> h264 (libx264))
Press [q] to stop, [?] for help
[libx264 @ 0x60174c868e40] using cpu capabilities: MMX2 SSE2Fast SSSE3 SSE4.2 AVX FMA3 BMI2 AVX2
[libx264 @ 0x60174c868e40] profile High, level 4.2, 4:2:0, 8-bit
[libx264 @ 0x60174c868e40] 264 - core 163 r3060 5db6aa6 - H.264/MPEG-4 AVC codec - Copyleft 2003-2021 - http://www.videolan.org/x264.html - options: cabac=1 ref=3 deblock=1:0:0 analyse=0x3:0x113 me=hex subme=7 psy=1 psy_rd=1.00:0.00 mixed_ref=1 me_range=16 chroma_me=1 trellis=1 8x8dct=1 cqm=0 deadzone=21,11 fast_pskip=1 chroma_qp_offset=-2 threads=12 lookahead_threads=2 sliced_threads=0 nr=0 decimate=1 interlaced=0 bluray_compat=0 constrained_intra=0 bframes=3 b_pyramid=2 b_adapt=1 b_bias=0 direct=1 weightb=1 open_gop=0 weightp=2 keyint=250 keyint_min=25 scenecut=40 intra_refresh=0 rc_lookahead=40 rc=crf mbtree=1 crf=25.0 qcomp=0.60 qpmin=0 qpmax=69 qpstep=4 ip_ratio=1.40 aq=1:1.00
Output #0, mov, to '/data/GIT/C-TAP/RESULTS/movie005.MOV':
  Metadata:
    encoder         : Lavf58.76.100
  Stream #0:0: Video: h264 (avc1 / 0x31637661), yuv420p(tv, progressive), 1920x1080, q=2-31, 60 fps, 15360 tbn
    Metadata:
      encoder         : Lavc58.134.100 libx264
    Side data:
      cpb: bitrate max/min/avg: 0/0/0 buffer size: 0 vbv_delay: N/A
frame=    1 fps=0.0 q=0.0 size=       0kB time=00:00:00.00 bitrate=N/A speed=N/A    frame=    4 fps=0.0 q=-1.0 Lsize=      60kB time=00:00:00.01 bitrate=29297.6kbits/s speed=0.0712x    
video:59kB audio:0kB subtitle:0kB other streams:0kB global headers:0kB muxing overhead: 1.401645%
[libx264 @ 0x60174c868e40] frame I:1     Avg QP:28.93  size: 35183
[libx264 @ 0x60174c868e40] frame P:1     Avg QP:30.84  size: 20495
[libx264 @ 0x60174c868e40] frame B:2     Avg QP:31.02  size:  2030
[libx264 @ 0x60174c868e40] consecutive B-frames: 25.0%  0.0% 75.0%  0.0%
[libx264 @ 0x60174c868e40] mb I  I16..4: 10.1% 82.1%  7.8%
[libx264 @ 0x60174c868e40] mb P  I16..4:  5.6% 51.6%  2.3%  P16..4: 15.6%  0.6%  1.2%  0.0%  0.0%    skip:23.1%
[libx264 @ 0x60174c868e40] mb B  I16..4:  0.0%  0.1%  0.1%  B16..8: 10.4%  0.1%  0.0%  direct: 0.1%  skip:89.1%  L0:28.6% L1:70.4% BI: 1.0%
[libx264 @ 0x60174c868e40] 8x8 transform intra:83.6% inter:72.0%
[libx264 @ 0x60174c868e40] coded y,uvDC,uvAC intra: 50.6% 7.7% 0.3% inter: 6.3% 0.4% 0.0%
[libx264 @ 0x60174c868e40] i16 v,h,dc,p: 29% 19% 33% 19%
[libx264 @ 0x60174c868e40] i8 v,h,dc,ddl,ddr,vr,hd,vl,hu: 21% 13% 35%  7%  6%  5%  5%  4%  4%
[libx264 @ 0x60174c868e40] i4 v,h,dc,ddl,ddr,vr,hd,vl,hu: 31% 16% 26%  8%  6%  4%  4%  2%  2%
[libx264 @ 0x60174c868e40] i8c dc,h,v,p: 90%  6%  4%  0%
[libx264 @ 0x60174c868e40] Weighted P-Frames: Y:0.0% UV:0.0%
[libx264 @ 0x60174c868e40] ref B L0: 93.8%  6.2%
[libx264 @ 0x60174c868e40] kb/s:7168.68
Cleaning detritus...
about to delete input movie
/data/GIT/C-TAP/TMPMOVIEDIR/movie005.mp4
Cosmic consciousness has been achieved!!
from yet another movie 5 of 5.
True, full consciousness can now be reasserted by you poor human user.
